<?xml version="1.0" encoding="utf-8"?>
<!-- Generator: Adobe Illustrator 21.1.0, SVG Export Plug-In . SVG Version: 6.00 Build 0)  -->
<svg version="1.1" id="Layer_1" xmlns="http://www.w3.org/2000/svg" xmlns:xlink="http://www.w3.org/1999/xlink" x="0px" y="0px"
	 viewBox="0 0 48 48" style="enable-background:new 0 0 48 48;" xml:space="preserve">
<style type="text/css">
	.st0{fill:#39393B;}
	.st1{fill:none;stroke:#39393B;stroke-width:3;stroke-miterlimit:10;}
</style>
<path class="st0" d="M30.6,7.5c-0.3,2.8-3.4,4.8-6.9,4.6s-6-2.7-5.7-5.5s3.4-4.8,6.9-4.6S31,4.7,30.6,7.5z"/>
<path class="st0" d="M14.6,27.5c-0.3,2.8-3.4,4.8-6.9,4.6c-3.5-0.3-6-2.7-5.7-5.5s3.4-4.8,6.9-4.6C12.4,22.2,15,24.7,14.6,27.5z"/>
<path class="st0" d="M46.6,34.5c-0.3,2.8-3.4,4.8-6.9,4.6c-3.5-0.3-6-2.7-5.7-5.5s3.4-4.8,6.9-4.6C44.4,29.2,47,31.7,46.6,34.5z"/>
<line class="st1" x1="8.3" y1="27" x2="24.3" y2="7"/>
<line class="st1" x1="26.8" y1="9.8" x2="40.3" y2="34.7"/>
</svg>
