<?xml version="1.0" encoding="UTF-8" standalone="no"?>
<!-- Generator: Adobe Illustrator 16.0.0, SVG Export Plug-In . SVG Version: 6.00 Build 0)  -->

<svg
   xmlns:dc="http://purl.org/dc/elements/1.1/"
   xmlns:cc="http://creativecommons.org/ns#"
   xmlns:rdf="http://www.w3.org/1999/02/22-rdf-syntax-ns#"
   xmlns:svg="http://www.w3.org/2000/svg"
   xmlns="http://www.w3.org/2000/svg"
   xmlns:sodipodi="http://sodipodi.sourceforge.net/DTD/sodipodi-0.dtd"
   xmlns:inkscape="http://www.inkscape.org/namespaces/inkscape"
   version="1.1"
   x="0px"
   y="0px"
   width="168.158"
   height="186.877"
   viewBox="-419.5 -265 168.158 186.877"
   enable-background="new -419.5 -265 950 600"
   xml:space="preserve"
   id="svg153"
   sodipodi:docname="physical.svg"
   inkscape:version="0.92.1 r15371"><metadata
     id="metadata159"><rdf:RDF><cc:Work
         rdf:about=""><dc:format>image/svg+xml</dc:format><dc:type
           rdf:resource="http://purl.org/dc/dcmitype/StillImage" /><dc:title></dc:title></cc:Work></rdf:RDF></metadata><defs
     id="defs157" /><sodipodi:namedview
     pagecolor="#ffffff"
     bordercolor="#666666"
     borderopacity="1"
     objecttolerance="10"
     gridtolerance="10"
     guidetolerance="10"
     inkscape:pageopacity="0"
     inkscape:pageshadow="2"
     inkscape:window-width="1920"
     inkscape:window-height="1125"
     id="namedview155"
     showgrid="false"
     inkscape:zoom="0.38842105"
     inkscape:cx="46.788"
     inkscape:cy="128.532"
     inkscape:window-x="-9"
     inkscape:window-y="-9"
     inkscape:window-maximized="1"
     inkscape:current-layer="Physical" /><g
     id="Physical"
     transform="translate(-428.212,-241.655)"><linearGradient
       id="Physical_Active_1_"
       gradientUnits="userSpaceOnUse"
       x1="-419.5"
       y1="-31.747101"
       x2="530.5"
       y2="-31.747101"
       gradientTransform="translate(1552.439,674.52575)"><stop
         offset="0"
         style="stop-color:#FFFFFF"
         id="stop3" /><stop
         offset="1"
         style="stop-color:#F7E16B"
         id="stop5" /></linearGradient><g
       id="Physical_Icon_2_"><linearGradient
         id="SVGID_1_"
         gradientUnits="userSpaceOnUse"
         x1="349.71191"
         y1="-270.09381"
         x2="516.87012"
         y2="-270.09381"
         gradientTransform="matrix(1,0,0,-1,-340.5,-200)"><stop
           offset="0"
           style="stop-color:#CCCCCC"
           id="stop11" /><stop
           offset="1"
           style="stop-color:#999999"
           id="stop13" /></linearGradient><rect
         x="9.2119999"
         y="-22.844999"
         stroke-miterlimit="10"
         width="167.158"
         height="185.877"
         id="rect16"
         style="fill:url(#SVGID_1_);stroke:#333333;stroke-miterlimit:10" /><linearGradient
         id="SVGID_2_"
         gradientUnits="userSpaceOnUse"
         x1="-381.67291"
         y1="-211.39549"
         x2="-247.0791"
         y2="-211.39549"
         gradientTransform="rotate(180,-110.25,-100)"><stop
           offset="0"
           style="stop-color:#999999"
           id="stop18" /><stop
           offset="1"
           style="stop-color:#4D4D4D"
           id="stop20" /></linearGradient><rect
         x="26.579"
         y="-7.1919999"
         stroke-miterlimit="10"
         width="134.59399"
         height="37.174999"
         id="rect23"
         style="fill:url(#SVGID_2_);stroke:#333333;stroke-miterlimit:10" /><linearGradient
         id="SVGID_3_"
         gradientUnits="userSpaceOnUse"
         x1="-381.67291"
         y1="-266.18021"
         x2="-247.0791"
         y2="-266.18021"
         gradientTransform="rotate(180,-110.25,-100)"><stop
           offset="0"
           style="stop-color:#999999"
           id="stop25" /><stop
           offset="1"
           style="stop-color:#4D4D4D"
           id="stop27" /></linearGradient><rect
         x="26.579"
         y="47.592999"
         stroke-miterlimit="10"
         width="134.59399"
         height="37.174999"
         id="rect30"
         style="fill:url(#SVGID_3_);stroke:#333333;stroke-miterlimit:10" /><linearGradient
         id="SVGID_4_"
         gradientUnits="userSpaceOnUse"
         x1="-381.67291"
         y1="-320.96579"
         x2="-247.0791"
         y2="-320.96579"
         gradientTransform="rotate(180,-110.25,-100)"><stop
           offset="0"
           style="stop-color:#999999"
           id="stop32" /><stop
           offset="1"
           style="stop-color:#4D4D4D"
           id="stop34" /></linearGradient><rect
         x="26.579"
         y="102.378"
         stroke-miterlimit="10"
         width="134.59399"
         height="37.175999"
         id="rect37"
         style="fill:url(#SVGID_4_);stroke:#333333;stroke-miterlimit:10" /></g></g><g
     id="Logical"
     display="none"
     style="display:none"
     transform="translate(-428.212,-241.655)"><path
       id="Physical_Inactive_2_"
       display="inline"
       d="m -306.006,67.84 0.004,-0.001 h 218.985 v 85.824 c 0,26.423 26.085,47.843 58.264,47.843 h 231.291 c 32.178,0 58.264,-21.42 58.264,-47.843 V -65.001 H 530.5 v -200 h -950 v 62.177 137.822 85.52 c 0,26.135 22.386,47.321 50,47.321"
       inkscape:connector-curvature="0"
       style="display:inline;fill:#cccccc" /><g
       id="Physical_Icon_1_"
       display="inline"
       style="display:inline"><linearGradient
         id="SVGID_5_"
         gradientUnits="userSpaceOnUse"
         x1="349.71191"
         y1="-270.09381"
         x2="516.87012"
         y2="-270.09381"
         gradientTransform="matrix(1,0,0,-1,-340.5,-200)"><stop
           offset="0"
           style="stop-color:#CCCCCC"
           id="stop53" /><stop
           offset="1"
           style="stop-color:#999999"
           id="stop55" /></linearGradient><rect
         x="9.2119999"
         y="-22.844999"
         stroke-miterlimit="10"
         width="167.158"
         height="185.877"
         id="rect58"
         style="fill:url(#SVGID_5_);stroke:#333333;stroke-miterlimit:10" /><linearGradient
         id="SVGID_6_"
         gradientUnits="userSpaceOnUse"
         x1="-381.67291"
         y1="-211.39549"
         x2="-247.0791"
         y2="-211.39549"
         gradientTransform="rotate(180,-110.25,-100)"><stop
           offset="0"
           style="stop-color:#999999"
           id="stop60" /><stop
           offset="1"
           style="stop-color:#4D4D4D"
           id="stop62" /></linearGradient><rect
         x="26.579"
         y="-7.1919999"
         stroke-miterlimit="10"
         width="134.59399"
         height="37.174999"
         id="rect65"
         style="fill:url(#SVGID_6_);stroke:#333333;stroke-miterlimit:10" /><linearGradient
         id="SVGID_7_"
         gradientUnits="userSpaceOnUse"
         x1="-381.67291"
         y1="-266.18021"
         x2="-247.0791"
         y2="-266.18021"
         gradientTransform="rotate(180,-110.25,-100)"><stop
           offset="0"
           style="stop-color:#999999"
           id="stop67" /><stop
           offset="1"
           style="stop-color:#4D4D4D"
           id="stop69" /></linearGradient><rect
         x="26.579"
         y="47.592999"
         stroke-miterlimit="10"
         width="134.59399"
         height="37.174999"
         id="rect72"
         style="fill:url(#SVGID_7_);stroke:#333333;stroke-miterlimit:10" /><linearGradient
         id="SVGID_8_"
         gradientUnits="userSpaceOnUse"
         x1="-381.67291"
         y1="-320.96579"
         x2="-247.0791"
         y2="-320.96579"
         gradientTransform="rotate(180,-110.25,-100)"><stop
           offset="0"
           style="stop-color:#999999"
           id="stop74" /><stop
           offset="1"
           style="stop-color:#4D4D4D"
           id="stop76" /></linearGradient><rect
         x="26.579"
         y="102.378"
         stroke-miterlimit="10"
         width="134.59399"
         height="37.175999"
         id="rect79"
         style="fill:url(#SVGID_8_);stroke:#333333;stroke-miterlimit:10" /></g><path
       id="Physical_Outline_2_"
       display="inline"
       stroke-miterlimit="10"
       d="m -303.506,67.09 0.004,-1.751 h 218.985 v 87.574 c 0,26.423 26.085,47.843 58.264,47.843 h 231.291 c 32.178,0 58.264,-21.42 58.264,-47.843 V -65.751"
       inkscape:connector-curvature="0"
       style="display:inline;fill:none;stroke:#333333;stroke-width:5;stroke-miterlimit:10" /><linearGradient
       id="Logical_Active_1_"
       gradientUnits="userSpaceOnUse"
       x1="-419.5"
       y1="35"
       x2="530.5"
       y2="35"><stop
         offset="0"
         style="stop-color:#FFFFFF"
         id="stop83" /><stop
         offset="1"
         style="stop-color:#F7E16B"
         id="stop85" /></linearGradient><path
       id="Logical_Active"
       display="inline"
       d="m 530.5,-65.001 v -200 h -950 v 62.177 137.822 85.52 c 0,26.135 22.386,47.321 50,47.321 h 63.494 v 219.317 c 0,26.423 26.085,47.843 58.264,47.843 h 231.291 c 32.178,0 58.264,-21.42 58.264,-47.843 v -225.8 c 0,-26.423 -26.085,-47.843 -58.264,-47.843 H -78.918 V -65.003 H 530.5 Z"
       inkscape:connector-curvature="0"
       style="display:inline;fill:url(#Logical_Active_1_)" /><g
       id="Logical_Icon_1_"
       display="inline"
       style="display:inline"><line
         stroke-miterlimit="10"
         x1="-210.95799"
         y1="207.278"
         x2="-124.33"
         y2="103.324"
         id="line89"
         style="fill:none;stroke:#333333;stroke-width:5;stroke-miterlimit:10" /><line
         stroke-miterlimit="10"
         x1="-124.33"
         y1="103.324"
         x2="-60.164001"
         y2="280.75101"
         id="line91"
         style="fill:none;stroke:#333333;stroke-width:5;stroke-miterlimit:10" /><path
         stroke-miterlimit="10"
         d="m -124.33,81.574 c 16.455,0 29.791,9.739 29.791,21.75 0,12.021 -13.336,21.767 -29.791,21.767 -16.454,0 -29.791,-9.746 -29.791,-21.767 0,-12.011 13.337,-21.75 29.791,-21.75 z"
         id="path93"
         inkscape:connector-curvature="0"
         style="fill:#ffffff;stroke:#333333;stroke-width:5;stroke-miterlimit:10" /><path
         stroke-miterlimit="10"
         d="m -210.966,193.737 c 16.454,0 29.791,9.736 29.791,21.75 0,12.011 -13.337,21.758 -29.791,21.758 -16.455,0 -29.792,-9.747 -29.792,-21.758 0,-12.013 13.337,-21.75 29.792,-21.75 z"
         id="path95"
         inkscape:connector-curvature="0"
         style="fill:#ffffff;stroke:#333333;stroke-width:5;stroke-miterlimit:10" /><path
         stroke-miterlimit="10"
         d="m -60.164,266.252 c 16.455,0 29.792,9.746 29.792,21.767 0,12.011 -13.337,21.75 -29.792,21.75 -16.45,0 -29.787,-9.739 -29.787,-21.75 0,-12.021 13.337,-21.767 29.787,-21.767 z"
         id="path97"
         inkscape:connector-curvature="0"
         style="fill:#ffffff;stroke:#333333;stroke-width:5;stroke-miterlimit:10" /></g><path
       id="Logical_Outline_1_"
       display="inline"
       stroke-miterlimit="10"
       d="m -417,-265 v 59.677 137.822 85.52 c 0,26.135 22.386,47.321 50,47.321 h 63.494 v 219.317 c 0,26.423 26.085,47.843 58.264,47.843 h 231.291 c 32.178,0 58.264,-21.42 58.264,-47.843 v -225.8 c 0,-26.423 -26.085,-47.843 -58.264,-47.843 h -62.467 v -78.516"
       inkscape:connector-curvature="0"
       style="display:inline;fill:none;stroke:#333333;stroke-width:5;stroke-miterlimit:10" /></g><g
     id="Logical_Mask"
     display="none"
     style="display:none"
     transform="translate(-428.212,-241.655)"><path
       display="inline"
       d="m -28.753,201.506 c -32.178,0 -58.264,-21.42 -58.264,-47.843 V 67.839 h -218.985 l -0.004,0.001 v 219.317 c 0,26.423 26.085,47.843 58.264,47.843 h 231.291 c 32.178,0 58.264,-21.42 58.264,-47.843 v -85.651 z"
       id="path102"
       inkscape:connector-curvature="0"
       style="display:inline;fill:#cccccc" /><path
       id="Physical_Outline_1_"
       display="inline"
       stroke-miterlimit="10"
       d="m -303.506,67.09 0.004,-1.751 h 218.985 v 87.574 c 0,26.423 26.085,47.843 58.264,47.843 h 70.92"
       inkscape:connector-curvature="0"
       style="display:inline;fill:none;stroke:#333333;stroke-width:5;stroke-miterlimit:10" /><path
       id="Logical_Outline_2_2_"
       display="inline"
       stroke-miterlimit="10"
       d="m -303.506,65.34 v 219.317 c 0,26.423 26.085,47.843 58.264,47.843 h 231.291 c 32.178,0 58.264,-21.42 58.264,-47.843 v -81.824 -4.583"
       inkscape:connector-curvature="0"
       style="display:inline;fill:none;stroke:#333333;stroke-width:5;stroke-miterlimit:10" /><path
       id="Logical_Outline_2_3_"
       display="inline"
       stroke-miterlimit="10"
       d="M -417,-265"
       inkscape:connector-curvature="0"
       style="display:inline;fill:none;stroke:#333333;stroke-width:5;stroke-miterlimit:10" /><g
       id="Logical_Icon_3_"
       display="inline"
       style="display:inline"><line
         stroke-miterlimit="10"
         x1="-210.95799"
         y1="207.278"
         x2="-124.33"
         y2="103.324"
         id="line107"
         style="fill:none;stroke:#333333;stroke-width:5;stroke-miterlimit:10" /><line
         stroke-miterlimit="10"
         x1="-124.33"
         y1="103.324"
         x2="-60.164001"
         y2="280.75101"
         id="line109"
         style="fill:none;stroke:#333333;stroke-width:5;stroke-miterlimit:10" /><path
         stroke-miterlimit="10"
         d="m -124.33,81.574 c 16.455,0 29.791,9.739 29.791,21.75 0,12.021 -13.336,21.767 -29.791,21.767 -16.454,0 -29.791,-9.746 -29.791,-21.767 0,-12.011 13.337,-21.75 29.791,-21.75 z"
         id="path111"
         inkscape:connector-curvature="0"
         style="fill:#ffffff;stroke:#333333;stroke-width:5;stroke-miterlimit:10" /><path
         stroke-miterlimit="10"
         d="m -210.966,193.737 c 16.454,0 29.791,9.736 29.791,21.75 0,12.011 -13.337,21.758 -29.791,21.758 -16.455,0 -29.792,-9.747 -29.792,-21.758 0,-12.013 13.337,-21.75 29.792,-21.75 z"
         id="path113"
         inkscape:connector-curvature="0"
         style="fill:#ffffff;stroke:#333333;stroke-width:5;stroke-miterlimit:10" /><path
         stroke-miterlimit="10"
         d="m -60.164,266.252 c 16.455,0 29.792,9.746 29.792,21.767 0,12.011 -13.337,21.75 -29.792,21.75 -16.45,0 -29.787,-9.739 -29.787,-21.75 0,-12.021 13.337,-21.767 29.787,-21.767 z"
         id="path115"
         inkscape:connector-curvature="0"
         style="fill:#ffffff;stroke:#333333;stroke-width:5;stroke-miterlimit:10" /></g></g><g
     id="Physical_Mask"
     display="none"
     style="display:none"
     transform="translate(-428.212,-241.655)"><path
       display="inline"
       d="m -78.918,13.515 h 62.467 c 32.178,0 58.264,21.42 58.264,47.843 v 140.148 h 160.725 c 32.178,0 58.264,-21.42 58.264,-47.843 V -65.001 h -339.72 z"
       id="path119"
       inkscape:connector-curvature="0"
       style="display:inline;fill:#cccccc" /><g
       id="Physical_Icon_3_"
       display="inline"
       style="display:inline"><linearGradient
         id="SVGID_9_"
         gradientUnits="userSpaceOnUse"
         x1="9.2118998"
         y1="70.093803"
         x2="176.3701"
         y2="70.093803"><stop
           offset="0"
           style="stop-color:#CCCCCC"
           id="stop121" /><stop
           offset="1"
           style="stop-color:#999999"
           id="stop123" /></linearGradient><path
         stroke-miterlimit="10"
         d="m 9.212,18.402 c 19.307,7.793 32.6,24.097 32.6,42.955 V 163.032 H 176.37 V -22.845 H 9.212 Z"
         id="path126"
         inkscape:connector-curvature="0"
         style="fill:url(#SVGID_9_);stroke:#333333;stroke-miterlimit:10" /><linearGradient
         id="SVGID_10_"
         gradientUnits="userSpaceOnUse"
         x1="-381.67291"
         y1="-211.39549"
         x2="-247.0791"
         y2="-211.39549"
         gradientTransform="rotate(180,-110.25,-100)"><stop
           offset="0"
           style="stop-color:#999999"
           id="stop128" /><stop
           offset="1"
           style="stop-color:#4D4D4D"
           id="stop130" /></linearGradient><rect
         x="26.579"
         y="-7.1919999"
         stroke-miterlimit="10"
         width="134.59399"
         height="37.174999"
         id="rect133"
         style="fill:url(#SVGID_10_);stroke:#333333;stroke-miterlimit:10" /><linearGradient
         id="SVGID_11_"
         gradientUnits="userSpaceOnUse"
         x1="39.352501"
         y1="66.179703"
         x2="161.1729"
         y2="66.179703"><stop
           offset="0"
           style="stop-color:#999999"
           id="stop135" /><stop
           offset="1"
           style="stop-color:#4D4D4D"
           id="stop137" /></linearGradient><path
         stroke-miterlimit="10"
         d="m 41.812,61.357 v 23.41 H 161.173 V 47.593 H 39.353 c 1.592,4.36 2.459,8.978 2.459,13.764 z"
         id="path140"
         inkscape:connector-curvature="0"
         style="fill:url(#SVGID_11_);stroke:#333333;stroke-miterlimit:10" /><linearGradient
         id="SVGID_12_"
         gradientUnits="userSpaceOnUse"
         x1="41.812"
         y1="120.9658"
         x2="161.1729"
         y2="120.9658"><stop
           offset="0"
           style="stop-color:#999999"
           id="stop142" /><stop
           offset="1"
           style="stop-color:#4D4D4D"
           id="stop144" /></linearGradient><rect
         x="41.812"
         y="102.378"
         stroke-miterlimit="10"
         width="119.361"
         height="37.175999"
         id="rect147"
         style="fill:url(#SVGID_12_);stroke:#333333;stroke-miterlimit:10" /></g><path
       id="Physical_Outline_4_"
       display="inline"
       stroke-miterlimit="10"
       d="m 44.333,200.756 h 160.704 c 32.178,0 58.264,-21.42 58.264,-47.843 V -65.751"
       inkscape:connector-curvature="0"
       style="display:inline;fill:none;stroke:#333333;stroke-width:5;stroke-miterlimit:10" /><path
       id="Logical_Outline_3_"
       display="inline"
       stroke-miterlimit="10"
       d="m -76.418,-67.501 v 78.516 h 62.467 c 32.178,0 58.264,21.42 58.264,47.843 v 142.642 1.751"
       inkscape:connector-curvature="0"
       style="display:inline;fill:none;stroke:#333333;stroke-width:5;stroke-miterlimit:10" /></g></svg>