<?xml version="1.0" encoding="utf-8"?>
<!-- Generator: Adobe Illustrator 21.1.0, SVG Export Plug-In . SVG Version: 6.00 Build 0)  -->
<svg version="1.1" id="Layer_1" xmlns="http://www.w3.org/2000/svg" xmlns:xlink="http://www.w3.org/1999/xlink" x="0px" y="0px"
	 viewBox="0 0 48 48" style="enable-background:new 0 0 48 48;" xml:space="preserve">
<style type="text/css">
	.st0{fill:#39393B;}
	.st1{fill:#39393B;stroke:#FFFFFF;stroke-miterlimit:10;}
</style>
<path class="st0" d="M48,45.3H0v-9.8h48V45.3z M10,35.5H7.5v9.8H10V35.5z M20,35.5h-2.5v9.8H20V35.5z M30,35.5h-2.5v9.8H30V35.5z
	 M40,35.5h-2.5v9.8H40V35.5z"/>
<path class="st1" d="M24,6.8C14.4,6.8,6.8,14.4,6.8,24S14.4,41.3,24,41.3S41.3,33.6,41.3,24S33.6,6.8,24,6.8z M35,26.3H12.5V20H35
	V26.3z"/>
<path class="st0" d="M12.4,17.8l-4.8-4.3c-0.4-0.4-0.4-1-0.1-1.4l3-3.4c0.4-0.4,1-0.4,1.4-0.1l4.8,4.3c0.4,0.4,0.4,1,0.1,1.4l-3,3.4
	C13.5,18.1,12.8,18.2,12.4,17.8z"/>
<path class="st0" d="M28.3,14.1h-8.6c-0.5,0-1-0.4-1-1V4.5c0-0.5,0.5-1,1-1h8.6c0.5,0,1,0.5,1,1v8.6C29.3,13.6,28.8,14.1,28.3,14.1z
	"/>
</svg>
