<?xml version="1.0" encoding="UTF-8" standalone="no"?>
<!-- Generator: Adobe Illustrator 16.0.0, SVG Export Plug-In . SVG Version: 6.00 Build 0)  -->

<svg
   xmlns:dc="http://purl.org/dc/elements/1.1/"
   xmlns:cc="http://creativecommons.org/ns#"
   xmlns:rdf="http://www.w3.org/1999/02/22-rdf-syntax-ns#"
   xmlns:svg="http://www.w3.org/2000/svg"
   xmlns="http://www.w3.org/2000/svg"
   xmlns:sodipodi="http://sodipodi.sourceforge.net/DTD/sodipodi-0.dtd"
   xmlns:inkscape="http://www.inkscape.org/namespaces/inkscape"
   version="1.1"
   x="0px"
   y="0px"
   width="295.48401"
   height="223.517"
   viewBox="-419.5 -265 295.48401 223.517"
   enable-background="new -419.5 -265 950 600"
   xml:space="preserve"
   id="svg187"
   sodipodi:docname="simulation_only.svg"
   inkscape:version="0.92.1 r15371"><metadata
     id="metadata193"><rdf:RDF><cc:Work
         rdf:about=""><dc:format>image/svg+xml</dc:format><dc:type
           rdf:resource="http://purl.org/dc/dcmitype/StillImage" /><dc:title></dc:title></cc:Work></rdf:RDF></metadata><defs
     id="defs191" /><sodipodi:namedview
     pagecolor="#ffffff"
     bordercolor="#666666"
     borderopacity="1"
     objecttolerance="10"
     gridtolerance="10"
     guidetolerance="10"
     inkscape:pageopacity="0"
     inkscape:pageshadow="2"
     inkscape:window-width="1920"
     inkscape:window-height="1125"
     id="namedview189"
     showgrid="false"
     inkscape:zoom="0.38842105"
     inkscape:cx="-38.587997"
     inkscape:cy="-52.042"
     inkscape:window-x="-9"
     inkscape:window-y="-9"
     inkscape:window-maximized="1"
     inkscape:current-layer="Simulation" /><g
     id="Realtime"
     display="none"
     style="display:none"
     transform="translate(-513.588,-24.441)"><path
       id="Logical_Inactive_1_"
       display="inline"
       d="M -419.5,135.001 V 335 h 950 V 272.823 135.001 49.481 C 530.5,23.346 508.114,2.16 480.5,2.16 H 417.006 V -217.157 C 417.006,-243.58 390.92,-265 358.742,-265 H 127.451 c -32.178,0 -58.264,21.42 -58.264,47.843 v 225.8 c 0,26.423 26.086,47.843 58.264,47.843 h 62.467 v 78.516 H -419.5 Z"
       inkscape:connector-curvature="0"
       style="display:inline;fill:#cccccc" /><g
       id="Simulation_Icon_copy"
       display="inline"
       style="display:inline"><linearGradient
         id="SVGID_1_"
         gradientUnits="userSpaceOnUse"
         x1="95.587898"
         y1="-37.234901"
         x2="388.0723"
         y2="-37.234901"><stop
           offset="0"
           style="stop-color:#F0F0F0"
           id="stop3" /><stop
           offset="1"
           style="stop-color:#CCCCCC"
           id="stop5" /></linearGradient><rect
         x="95.587997"
         y="-55.926998"
         stroke-miterlimit="10"
         width="292.48401"
         height="37.384998"
         id="rect8"
         style="fill:url(#SVGID_1_);stroke:#333333;stroke-width:3;stroke-miterlimit:10" /><line
         stroke-miterlimit="10"
         x1="140.32899"
         y1="-55.551998"
         x2="140.32899"
         y2="-19.971001"
         id="line10"
         style="fill:none;stroke:#333333;stroke-width:3;stroke-miterlimit:10" /><line
         stroke-miterlimit="10"
         x1="186.537"
         y1="-55.551998"
         x2="186.537"
         y2="-19.971001"
         id="line12"
         style="fill:none;stroke:#333333;stroke-width:3;stroke-miterlimit:10" /><line
         stroke-miterlimit="10"
         x1="235.056"
         y1="-55.551998"
         x2="235.056"
         y2="-19.971001"
         id="line14"
         style="fill:none;stroke:#333333;stroke-width:3;stroke-miterlimit:10" /><line
         stroke-miterlimit="10"
         x1="288.19501"
         y1="-55.551998"
         x2="288.19501"
         y2="-19.971001"
         id="line16"
         style="fill:none;stroke:#333333;stroke-width:3;stroke-miterlimit:10" /><line
         stroke-miterlimit="10"
         x1="339.02399"
         y1="-55.551998"
         x2="339.02399"
         y2="-19.971001"
         id="line18"
         style="fill:none;stroke:#333333;stroke-width:3;stroke-miterlimit:10" /><linearGradient
         id="SVGID_2_"
         gradientUnits="userSpaceOnUse"
         x1="215.2617"
         y1="-217.8799"
         x2="259.62009"
         y2="-217.8799"><stop
           offset="0"
           style="stop-color:#999999"
           id="stop20" /><stop
           offset="1"
           style="stop-color:#4D4D4D"
           id="stop22" /></linearGradient><path
         stroke-miterlimit="10"
         d="m 259.62,-200.322 c 0,2.552 -2.069,4.621 -4.621,4.621 h -35.116 c -2.552,0 -4.621,-2.069 -4.621,-4.621 v -35.116 c 0,-2.552 2.069,-4.621 4.621,-4.621 h 35.116 c 2.552,0 4.621,2.069 4.621,4.621 z"
         id="path25"
         inkscape:connector-curvature="0"
         style="fill:url(#SVGID_2_);stroke:#333333;stroke-miterlimit:10" /><linearGradient
         id="SVGID_3_"
         gradientUnits="userSpaceOnUse"
         x1="158.9873"
         y1="-244.0298"
         x2="193.584"
         y2="-244.0298"
         gradientTransform="matrix(0.7071,-0.7071,0.7071,0.7071,213.4648,110.0553)"><stop
           offset="0"
           style="stop-color:#999999"
           id="stop27" /><stop
           offset="1"
           style="stop-color:#4D4D4D"
           id="stop29" /></linearGradient><path
         stroke-miterlimit="10"
         d="m 187.478,-189.701 c 1.407,1.408 1.407,3.689 0,5.097 l -19.367,19.366 c -1.407,1.407 -3.688,1.407 -5.097,0 l -19.365,-19.366 c -1.407,-1.408 -1.407,-3.689 0,-5.097 l 19.366,-19.366 c 1.407,-1.407 3.688,-1.408 5.097,0 z"
         id="path32"
         inkscape:connector-curvature="0"
         style="fill:url(#SVGID_3_);stroke:#333333;stroke-miterlimit:10" /><linearGradient
         id="SVGID_4_"
         gradientUnits="userSpaceOnUse"
         x1="139.9463"
         y1="-117.3809"
         x2="336.78421"
         y2="-117.3809"><stop
           offset="0"
           style="stop-color:#F0F0F0"
           id="stop34" /><stop
           offset="1"
           style="stop-color:#CCCCCC"
           id="stop36" /></linearGradient><circle
         stroke-miterlimit="10"
         cx="238.36501"
         cy="-117.38"
         r="98.418999"
         id="circle39"
         style="fill:url(#SVGID_4_);stroke:#333333;stroke-width:3;stroke-miterlimit:10" /><path
         stroke-miterlimit="10"
         d="m 300.744,-93.662 c 0,2.977 -2.068,5.391 -4.621,5.391 H 180.608 c -2.552,0 -4.621,-2.414 -4.621,-5.391 V -141.1 c 0,-2.977 2.069,-5.391 4.621,-5.391 h 115.515 c 2.553,0 4.621,2.414 4.621,5.391 z"
         id="path41"
         inkscape:connector-curvature="0"
         style="opacity:0.8;fill:#333333;stroke:#333333;stroke-miterlimit:10" /></g><linearGradient
       id="Physical_Active_1_"
       gradientUnits="userSpaceOnUse"
       x1="-419.5"
       y1="-31.747101"
       x2="530.5"
       y2="-31.747101"
       gradientTransform="rotate(180,55.5,35)"><stop
         offset="0"
         style="stop-color:#FFFFFF"
         id="stop44" /><stop
         offset="1"
         style="stop-color:#F7E16B"
         id="stop46" /></linearGradient><path
       id="Physical_Active"
       display="inline"
       d="m 417.006,2.16 -0.004,10e-4 H 198.017 v -85.824 c 0,-26.423 -26.085,-47.843 -58.264,-47.843 h -231.29 c -32.178,0 -58.264,21.42 -58.264,47.843 V 135.001 H -419.5 V 335 h 950 V 272.823 135.001 49.481 C 530.5,23.346 508.114,2.16 480.5,2.16"
       inkscape:connector-curvature="0"
       style="display:inline;fill:url(#Physical_Active_1_)" /><path
       id="Physical_Outline_6_"
       display="inline"
       stroke-miterlimit="10"
       d="m 414.506,2.91 -0.004,1.751 H 195.517 v -87.574 c 0,-26.423 -26.085,-47.843 -58.264,-47.843 h -231.29 c -32.178,0 -58.264,21.42 -58.264,47.843 v 218.664"
       inkscape:connector-curvature="0"
       style="display:inline;fill:none;stroke:#333333;stroke-width:5;stroke-miterlimit:10" /><path
       id="Logical_Outline_2_1_"
       display="inline"
       stroke-miterlimit="10"
       d="M 528,335 V 275.323 137.501 51.981 C 528,25.846 505.614,4.66 478,4.66 h -63.494 v -219.317 c 0,-26.423 -26.086,-47.843 -58.264,-47.843 H 124.951 c -32.178,0 -58.264,21.42 -58.264,47.843 v 81.824"
       inkscape:connector-curvature="0"
       style="display:inline;fill:none;stroke:#333333;stroke-width:5;stroke-miterlimit:10" /><g
       id="Realtime_Icon_1_"
       display="inline"
       style="display:inline"><circle
         stroke-miterlimit="10"
         cx="26.080999"
         cy="16.431"
         r="106.495"
         id="circle52"
         style="fill:#ffffff;stroke:#333333;stroke-width:3;stroke-miterlimit:10" /><linearGradient
         id="SVGID_5_"
         gradientUnits="userSpaceOnUse"
         x1="-60.414101"
         y1="16.4307"
         x2="112.5762"
         y2="16.4307"><stop
           offset="0"
           style="stop-color:#F0F0F0"
           id="stop54" /><stop
           offset="1"
           style="stop-color:#CCCCCC"
           id="stop56" /></linearGradient><circle
         stroke-miterlimit="10"
         cx="26.080999"
         cy="16.431"
         r="86.495003"
         id="circle59"
         style="fill:url(#SVGID_5_);stroke:#333333;stroke-width:3;stroke-miterlimit:10" /><polyline
         stroke-miterlimit="10"
         points="28.32,-52.833 28.32,16.833     -32.987,16.833   "
         id="polyline61"
         style="fill:none;stroke:#333333;stroke-width:9;stroke-miterlimit:10" /></g></g><g
     id="Simulation"
     transform="translate(-513.588,-24.441)"><linearGradient
       id="Logical_Active_1_"
       gradientUnits="userSpaceOnUse"
       x1="-419.5"
       y1="35"
       x2="530.5"
       y2="35"
       gradientTransform="rotate(180,73.52168,110.94851)"><stop
         offset="0"
         style="stop-color:#FFFFFF"
         id="stop79" /><stop
         offset="1"
         style="stop-color:#F7E16B"
         id="stop81" /></linearGradient><g
       id="Simulation_Icon_copy_2"><linearGradient
         id="SVGID_7_"
         gradientUnits="userSpaceOnUse"
         x1="95.587898"
         y1="-37.234901"
         x2="388.0723"
         y2="-37.234901"><stop
           offset="0"
           style="stop-color:#F0F0F0"
           id="stop85" /><stop
           offset="1"
           style="stop-color:#CCCCCC"
           id="stop87" /></linearGradient><rect
         x="95.587997"
         y="-55.926998"
         stroke-miterlimit="10"
         width="292.48401"
         height="37.384998"
         id="rect90"
         style="fill:url(#SVGID_7_);stroke:#333333;stroke-width:3;stroke-miterlimit:10" /><line
         stroke-miterlimit="10"
         x1="140.32899"
         y1="-55.551998"
         x2="140.32899"
         y2="-19.971001"
         id="line92"
         style="fill:none;stroke:#333333;stroke-width:3;stroke-miterlimit:10" /><line
         stroke-miterlimit="10"
         x1="186.537"
         y1="-55.551998"
         x2="186.537"
         y2="-19.971001"
         id="line94"
         style="fill:none;stroke:#333333;stroke-width:3;stroke-miterlimit:10" /><line
         stroke-miterlimit="10"
         x1="235.056"
         y1="-55.551998"
         x2="235.056"
         y2="-19.971001"
         id="line96"
         style="fill:none;stroke:#333333;stroke-width:3;stroke-miterlimit:10" /><line
         stroke-miterlimit="10"
         x1="288.19501"
         y1="-55.551998"
         x2="288.19501"
         y2="-19.971001"
         id="line98"
         style="fill:none;stroke:#333333;stroke-width:3;stroke-miterlimit:10" /><line
         stroke-miterlimit="10"
         x1="339.02399"
         y1="-55.551998"
         x2="339.02399"
         y2="-19.971001"
         id="line100"
         style="fill:none;stroke:#333333;stroke-width:3;stroke-miterlimit:10" /><linearGradient
         id="SVGID_8_"
         gradientUnits="userSpaceOnUse"
         x1="215.2617"
         y1="-217.8799"
         x2="259.62009"
         y2="-217.8799"><stop
           offset="0"
           style="stop-color:#999999"
           id="stop102" /><stop
           offset="1"
           style="stop-color:#4D4D4D"
           id="stop104" /></linearGradient><path
         stroke-miterlimit="10"
         d="m 259.62,-200.322 c 0,2.552 -2.069,4.621 -4.621,4.621 h -35.116 c -2.552,0 -4.621,-2.069 -4.621,-4.621 v -35.116 c 0,-2.552 2.069,-4.621 4.621,-4.621 h 35.116 c 2.552,0 4.621,2.069 4.621,4.621 z"
         id="path107"
         inkscape:connector-curvature="0"
         style="fill:url(#SVGID_8_);stroke:#333333;stroke-miterlimit:10" /><linearGradient
         id="SVGID_9_"
         gradientUnits="userSpaceOnUse"
         x1="158.9873"
         y1="-244.0298"
         x2="193.584"
         y2="-244.0298"
         gradientTransform="matrix(0.7071,-0.7071,0.7071,0.7071,213.4648,110.0553)"><stop
           offset="0"
           style="stop-color:#999999"
           id="stop109" /><stop
           offset="1"
           style="stop-color:#4D4D4D"
           id="stop111" /></linearGradient><path
         stroke-miterlimit="10"
         d="m 187.478,-189.701 c 1.407,1.408 1.407,3.689 0,5.097 l -19.367,19.366 c -1.407,1.407 -3.688,1.407 -5.097,0 l -19.365,-19.366 c -1.407,-1.408 -1.407,-3.689 0,-5.097 l 19.366,-19.366 c 1.407,-1.407 3.688,-1.408 5.097,0 z"
         id="path114"
         inkscape:connector-curvature="0"
         style="fill:url(#SVGID_9_);stroke:#333333;stroke-miterlimit:10" /><linearGradient
         id="SVGID_10_"
         gradientUnits="userSpaceOnUse"
         x1="139.9463"
         y1="-117.3809"
         x2="336.78421"
         y2="-117.3809"><stop
           offset="0"
           style="stop-color:#F0F0F0"
           id="stop116" /><stop
           offset="1"
           style="stop-color:#CCCCCC"
           id="stop118" /></linearGradient><circle
         stroke-miterlimit="10"
         cx="238.36501"
         cy="-117.38"
         r="98.418999"
         id="circle121"
         style="fill:url(#SVGID_10_);stroke:#333333;stroke-width:3;stroke-miterlimit:10" /><path
         stroke-miterlimit="10"
         d="m 300.744,-93.662 c 0,2.977 -2.068,5.391 -4.621,5.391 H 180.608 c -2.552,0 -4.621,-2.414 -4.621,-5.391 V -141.1 c 0,-2.977 2.069,-5.391 4.621,-5.391 h 115.515 c 2.553,0 4.621,2.414 4.621,5.391 z"
         id="path123"
         inkscape:connector-curvature="0"
         style="opacity:0.8;fill:#333333;stroke:#333333;stroke-miterlimit:10" /></g></g><g
     id="Simulation_Mask_1_"
     display="none"
     style="display:none"
     transform="translate(-513.588,-24.441)"><path
       display="inline"
       d="m 139.914,-131.506 c 32.178,0 58.264,21.42 58.264,47.843 V 2.161 H 417.162 L 417.166,2.16 V -217.157 C 417.166,-243.58 391.08,-265 358.902,-265 H 127.611 c -32.178,0 -58.264,21.42 -58.264,47.843 v 85.651 z"
       id="path128"
       inkscape:connector-curvature="0"
       style="display:inline;fill:#cccccc" /><path
       id="Physical_Outline_1_"
       display="inline"
       stroke-miterlimit="10"
       d="m 414.666,2.91 -0.004,1.751 H 195.678 v -87.574 c 0,-26.423 -26.086,-47.843 -58.264,-47.843 h -70.92"
       inkscape:connector-curvature="0"
       style="display:inline;fill:none;stroke:#333333;stroke-width:5;stroke-miterlimit:10" /><path
       id="Logical_Outline_2_2_"
       display="inline"
       stroke-miterlimit="10"
       d="m 414.666,4.66 v -219.317 c 0,-26.423 -26.086,-47.843 -58.264,-47.843 H 125.111 c -32.178,0 -58.264,21.42 -58.264,47.843 v 81.824 4.583"
       inkscape:connector-curvature="0"
       style="display:inline;fill:none;stroke:#333333;stroke-width:5;stroke-miterlimit:10" /><g
       id="Simulation_Icon_copy_3"
       display="inline"
       style="display:inline"><linearGradient
         id="SVGID_11_"
         gradientUnits="userSpaceOnUse"
         x1="198.1777"
         y1="-37.234901"
         x2="388.0723"
         y2="-37.234901"><stop
           offset="0"
           style="stop-color:#F0F0F0"
           id="stop132" /><stop
           offset="1"
           style="stop-color:#CCCCCC"
           id="stop134" /></linearGradient><rect
         x="198.17799"
         y="-55.926998"
         stroke-miterlimit="10"
         width="189.895"
         height="37.384998"
         id="rect137"
         style="fill:url(#SVGID_11_);stroke:#333333;stroke-width:3;stroke-miterlimit:10" /><line
         stroke-miterlimit="10"
         x1="235.056"
         y1="-55.551998"
         x2="235.056"
         y2="-19.971001"
         id="line139"
         style="fill:none;stroke:#333333;stroke-width:3;stroke-miterlimit:10" /><line
         stroke-miterlimit="10"
         x1="288.19501"
         y1="-55.551998"
         x2="288.19501"
         y2="-19.971001"
         id="line141"
         style="fill:none;stroke:#333333;stroke-width:3;stroke-miterlimit:10" /><line
         stroke-miterlimit="10"
         x1="339.02399"
         y1="-55.551998"
         x2="339.02399"
         y2="-19.971001"
         id="line143"
         style="fill:none;stroke:#333333;stroke-width:3;stroke-miterlimit:10" /><linearGradient
         id="SVGID_12_"
         gradientUnits="userSpaceOnUse"
         x1="215.2617"
         y1="-217.8799"
         x2="259.62009"
         y2="-217.8799"><stop
           offset="0"
           style="stop-color:#999999"
           id="stop145" /><stop
           offset="1"
           style="stop-color:#4D4D4D"
           id="stop147" /></linearGradient><path
         stroke-miterlimit="10"
         d="m 259.62,-200.322 c 0,2.552 -2.069,4.621 -4.621,4.621 h -35.116 c -2.552,0 -4.621,-2.069 -4.621,-4.621 v -35.116 c 0,-2.552 2.069,-4.621 4.621,-4.621 h 35.116 c 2.552,0 4.621,2.069 4.621,4.621 z"
         id="path150"
         inkscape:connector-curvature="0"
         style="fill:url(#SVGID_12_);stroke:#333333;stroke-miterlimit:10" /><linearGradient
         id="SVGID_13_"
         gradientUnits="userSpaceOnUse"
         x1="158.9873"
         y1="-244.0298"
         x2="193.584"
         y2="-244.0298"
         gradientTransform="matrix(0.7071,-0.7071,0.7071,0.7071,213.4648,110.0553)"><stop
           offset="0"
           style="stop-color:#999999"
           id="stop152" /><stop
           offset="1"
           style="stop-color:#4D4D4D"
           id="stop154" /></linearGradient><path
         stroke-miterlimit="10"
         d="m 187.478,-189.701 c 1.407,1.408 1.407,3.689 0,5.097 l -19.367,19.366 c -1.407,1.407 -3.688,1.407 -5.097,0 l -19.365,-19.366 c -1.407,-1.408 -1.407,-3.689 0,-5.097 l 19.366,-19.366 c 1.407,-1.407 3.688,-1.408 5.097,0 z"
         id="path157"
         inkscape:connector-curvature="0"
         style="fill:url(#SVGID_13_);stroke:#333333;stroke-miterlimit:10" /><linearGradient
         id="SVGID_14_"
         gradientUnits="userSpaceOnUse"
         x1="140.957"
         y1="-117.3809"
         x2="336.78421"
         y2="-117.3809"><stop
           offset="0"
           style="stop-color:#F0F0F0"
           id="stop159" /><stop
           offset="1"
           style="stop-color:#CCCCCC"
           id="stop161" /></linearGradient><path
         stroke-miterlimit="10"
         d="m 238.365,-18.961 c 54.355,0 98.419,-44.064 98.419,-98.419 0,-54.355 -44.063,-98.419 -98.419,-98.419 -49.565,0 -90.566,36.643 -97.408,84.315 31.694,0.458 57.221,21.686 57.221,47.821 v 56.146 c 12.271,5.496 25.871,8.556 40.187,8.556 z"
         id="path164"
         inkscape:connector-curvature="0"
         style="fill:url(#SVGID_14_);stroke:#333333;stroke-width:3;stroke-miterlimit:10" /><path
         stroke-miterlimit="10"
         d="M 300.744,-93.662 V -141.1 c 0,-2.977 -2.068,-5.391 -4.621,-5.391 H 180.608 c -2.552,0 -4.621,2.414 -4.621,5.391 v 19.881 c 12.131,7.868 20.362,19.604 21.916,32.948 h 98.22 c 2.553,0 4.621,-2.414 4.621,-5.391 z"
         id="path166"
         inkscape:connector-curvature="0"
         style="opacity:0.8;fill:#333333;stroke:#333333;stroke-miterlimit:10" /></g></g><g
     id="Realtime_Mask"
     display="none"
     style="display:none"
     transform="translate(-513.588,-24.441)"><path
       display="inline"
       d="M 189.801,56.235 H 127.334 C 95.156,56.235 69.07,34.815 69.07,8.392 V -131.756 H -91.654 c -32.178,0 -58.264,21.42 -58.264,47.843 v 218.664 h 339.719 z"
       id="path170"
       inkscape:connector-curvature="0"
       style="display:inline;fill:#cccccc" /><path
       id="Physical_Outline_4_"
       display="inline"
       stroke-miterlimit="10"
       d="M 66.55,-131.006 H -94.154 c -32.178,0 -58.264,21.42 -58.264,47.843 v 218.664"
       inkscape:connector-curvature="0"
       style="display:inline;fill:none;stroke:#333333;stroke-width:5;stroke-miterlimit:10" /><path
       id="Logical_Outline_3_"
       display="inline"
       stroke-miterlimit="10"
       d="M 187.301,137.251 V 58.735 H 124.834 C 92.656,58.735 66.57,37.315 66.57,10.892 v -142.642 -1.751"
       inkscape:connector-curvature="0"
       style="display:inline;fill:none;stroke:#333333;stroke-width:5;stroke-miterlimit:10" /><g
       id="Realtime_Icon_copy_2"
       display="inline"
       style="display:inline"><path
         stroke-miterlimit="10"
         d="m 26.081,122.926 c 44.761,0 83.066,-27.618 98.82,-66.741 C 93.854,55.137 69.07,34.146 69.07,8.393 v -89.416 c -13.149,-5.809 -27.69,-9.041 -42.989,-9.041 -58.815,0 -106.495,47.68 -106.495,106.495 0,58.815 47.68,106.495 106.495,106.495 z"
         id="path174"
         inkscape:connector-curvature="0"
         style="fill:#ffffff;stroke:#333333;stroke-width:3;stroke-miterlimit:10" /><linearGradient
         id="SVGID_15_"
         gradientUnits="userSpaceOnUse"
         x1="-60.414101"
         y1="16.4307"
         x2="104.6982"
         y2="16.4307"><stop
           offset="0"
           style="stop-color:#F0F0F0"
           id="stop176" /><stop
           offset="1"
           style="stop-color:#CCCCCC"
           id="stop178" /></linearGradient><path
         stroke-miterlimit="10"
         d="m 26.081,102.926 c 34.896,0 64.944,-20.677 78.617,-50.437 C 83.764,45.234 69.07,28.223 69.07,8.393 v -67.005 c -12.667,-7.272 -27.335,-11.452 -42.989,-11.452 -47.77,0 -86.495,38.725 -86.495,86.495 0,47.769 38.726,86.495 86.495,86.495 z"
         id="path181"
         inkscape:connector-curvature="0"
         style="fill:url(#SVGID_15_);stroke:#333333;stroke-width:3;stroke-miterlimit:10" /><polyline
         stroke-miterlimit="10"
         points="28.32,-52.833 28.32,16.833     -32.987,16.833   "
         id="polyline183"
         style="fill:none;stroke:#333333;stroke-width:9;stroke-miterlimit:10" /></g></g></svg>