<?xml version="1.0" encoding="utf-8"?>
<!-- Generator: Adobe Illustrator 21.1.0, SVG Export Plug-In . SVG Version: 6.00 Build 0)  -->
<svg version="1.1" id="Layer_1" xmlns="http://www.w3.org/2000/svg" xmlns:xlink="http://www.w3.org/1999/xlink" x="0px" y="0px"
	 viewBox="0 0 48 48" style="enable-background:new 0 0 48 48;" xml:space="preserve">
<style type="text/css">
	.st0{fill:#39393B;}
</style>
<g>
	<path class="st0" d="M44,12H4c-1.1,0-2,0.9-2,2s0.9,2,2,2h40c1.1,0,2-0.9,2-2S45.1,12,44,12z"/>
	<path class="st0" d="M44,22H4c-1.1,0-2,0.9-2,2s0.9,2,2,2h40c1.1,0,2-0.9,2-2S45.1,22,44,22z"/>
	<path class="st0" d="M4,36h12c1.1,0,2-0.9,2-2s-0.9-2-2-2H4c-1.1,0-2,0.9-2,2S2.9,36,4,36z"/>
	<path class="st0" d="M17,42H4c-1.1,0-2,0.9-2,2s0.9,2,2,2h13c1.1,0,2-0.9,2-2S18.1,42,17,42z"/>
	<path class="st0" d="M4,6h40c1.1,0,2-0.9,2-2s-0.9-2-2-2H4C2.9,2,2,2.9,2,4S2.9,6,4,6z"/>
	<path class="st0" d="M22,39c0,0,7,7,12,7s12-7,12-7s-7-7-12-7S22,39,22,39z M37,39c0,1.7-1.3,3-3,3s-3-1.3-3-3s1.3-3,3-3
		S37,37.3,37,39z"/>
</g>
</svg>
