<?xml version="1.0" encoding="utf-8"?>
<!-- Generator: Adobe Illustrator 21.1.0, SVG Export Plug-In . SVG Version: 6.00 Build 0)  -->
<svg version="1.1" id="Layer_1" xmlns="http://www.w3.org/2000/svg" xmlns:xlink="http://www.w3.org/1999/xlink" x="0px" y="0px"
	 viewBox="0 0 48 48" style="enable-background:new 0 0 48 48;" xml:space="preserve">
<style type="text/css">
	.st0{fill:#39393B;}
	.st1{fill:none;stroke:#39393B;stroke-width:2;stroke-miterlimit:10;}
</style>
<g id="Layer_2">
</g>
<polygon class="st0" points="2.7,7.4 20.6,8.6 18.8,1 "/>
<path class="st0" d="M34.8,45.8H3.6c-1.4,0-2.6-1.1-2.6-2.6v-2.4c0-1.4,1.1-2.6,2.6-2.6h31.3c1.4,0,2.6,1.1,2.6,2.6v2.4
	C37.4,44.6,36.2,45.8,34.8,45.8z"/>
<path class="st0" d="M33.9,39.1L20.2,2c-0.5-1.4-1.4-1.4-1.9,0L4.7,39.1c-0.5,1.4-0.1,2.5,1,2.5H33C34,41.6,34.4,40.5,33.9,39.1z
	 M11.9,28.7l1.3,2.7l2.9,0.4L14,33.9l0.5,3l-2.6-1.4l-2.5,1.4l0.5-3l-2.1-2.1l2.9-0.4L11.9,28.7z M28.7,31.2v2.4l1.8,1.3l-2.1,0.8
	l-0.6,2.2L26.5,36l-2.3,0.1l1.3-1.9L24.8,32l2.1,0.7L28.7,31.2z M22.7,20.5v2.9l2.2,1.7l-2.6,0.8l-0.8,2.8l-1.6-2.4l-2.7,0.1
	l1.6-2.3l-0.9-2.8l2.6,1L22.7,20.5z M19.2,8.1l1.2,2.6l2.7,0.4l-1.9,2l0.4,2.9l-2.4-1.4L16.8,16l0.4-2.9l-1.9-2l2.7-0.4L19.2,8.1z"
	/>
<path class="st1" d="M44.9,44.5l-3.5,1.1c-0.1,0-0.3,0-0.3-0.2l-9.2-29.1c0-0.1,0-0.3,0.2-0.3l3.5-1.1c0.1,0,0.3,0,0.3,0.2l9.2,29.1
	C45.2,44.3,45.1,44.5,44.9,44.5z"/>
<path class="st0" d="M36.7,16.8l-4.4,1.4c-0.4,0.1-0.9-0.1-1-0.5l-1.4-4.4c-0.1-0.4,0.1-0.9,0.5-1l4.4-1.4c0.4-0.1,0.9,0.1,1,0.5
	l1.4,4.4C37.3,16.2,37.1,16.7,36.7,16.8z"/>
</svg>
