<?xml version="1.0" encoding="utf-8"?>
<!-- Generator: Adobe Illustrator 21.1.0, SVG Export Plug-In . SVG Version: 6.00 Build 0)  -->
<svg version="1.1" id="Layer_1" xmlns="http://www.w3.org/2000/svg" xmlns:xlink="http://www.w3.org/1999/xlink" x="0px" y="0px"
	 viewBox="0 0 48 48" style="enable-background:new 0 0 48 48;" xml:space="preserve">
<style type="text/css">
	.st0{fill:#39393B;}
	.st1{enable-background:new    ;}
	.st2{fill:#39393B;stroke:#FFFFFF;stroke-miterlimit:10;}
</style>
<g>
	<path class="st0" d="M46,8H2c-1.1,0-2,0.9-2,2v28c0,1.1,0.9,2,2,2h44c1.1,0,2-0.9,2-2V10C48,8.9,47.1,8,46,8z M41,17.7l-17,9.6
		L7,17.7c-1-0.5-1.3-1.8-0.8-2.7c0.5-1,1.8-1.3,2.7-0.8l15,8.4l15-8.4c1-0.5,2.2-0.2,2.7,0.8S41.9,17.2,41,17.7z"/>
</g>
<g class="st1">
	<path class="st2" d="M27.8,34.8h6.7v-6.9h5.7v6.9h6.9v5.7h-6.9v6.7h-5.7v-6.7h-6.7V34.8z"/>
</g>
</svg>
