<?xml version="1.0" encoding="utf-8"?>
<!-- Generator: Adobe Illustrator 21.1.0, SVG Export Plug-In . SVG Version: 6.00 Build 0)  -->
<svg version="1.1" id="Layer_1" xmlns="http://www.w3.org/2000/svg" xmlns:xlink="http://www.w3.org/1999/xlink" x="0px" y="0px"
	 viewBox="0 0 48 48" style="enable-background:new 0 0 48 48;" xml:space="preserve">
<style type="text/css">
	.st0{fill:#39393B;}
	.st1{fill:#39393B;stroke:#FFFFFF;stroke-miterlimit:10;}
	.st2{fill:none;stroke:#FFFFFF;stroke-miterlimit:10;}
	.st3{fill:#FFFFFF;}
</style>
<path class="st0" d="M45,1.1H3c-1.2,0-2.1,0.9-2.1,2v42c0,1.2,0.9,2.1,2.1,2.1h42c1.2,0,2.1-0.9,2.1-2.1v-42C47.1,2,46.1,1.1,45,1.1
	z M5.1,43V11.5h37.8V43H5.1z"/>
<path class="st0" d="M42.2,30.7c0-3.8-2.7-7-6.1-7.8c0-0.2,0-0.4,0-0.6c0-4.6-3.6-8.1-8-8.1c-3.5,0-6.4,2.2-7.5,5.3
	c-0.8-0.4-1.8-0.7-2.8-0.7c-3.4,0-6.1,2.7-6.1,6.1c0,0.2,0,0.5,0.1,0.7h-0.1l0,0c-3.4,0.2-6.1,3-6.1,6.5s2.7,6.3,6.1,6.5l0,0h23l0,0
	C38.8,38.5,42.2,35.1,42.2,30.7z"/>
<g id="Router_4_">
	<path id="Base_4_" class="st1" d="M23.3,23.7v3c0,0,0.8,1.7,5.4,1.7s4.8-1.6,4.8-1.6V24L23.3,23.7z"/>
	<ellipse id="Top_4_" class="st1" cx="28.4" cy="23.5" rx="5.1" ry="2.2"/>
	<g>
		<g>
			<line class="st2" x1="29.9" y1="23.8" x2="31.9" y2="24.2"/>
			<g>
				<polygon class="st3" points="30,24.6 28.9,23.6 30.3,23.2 				"/>
			</g>
		</g>
	</g>
	<g>
		<g>
			<line class="st2" x1="27" y1="23.2" x2="25.1" y2="22.6"/>
			<g>
				<polygon class="st3" points="26.9,22.4 28.1,23.4 26.7,23.8 				"/>
			</g>
		</g>
	</g>
	<g>
		<g>
			<line class="st2" x1="27.9" y1="24.3" x2="28.4" y2="23.7"/>
			<g>
				<polygon class="st3" points="28.5,24.7 27.1,25 27.4,23.7 				"/>
			</g>
		</g>
	</g>
	<g>
		<g>
			<line class="st2" x1="29.1" y1="22.6" x2="28.5" y2="23.4"/>
			<g>
				<polygon class="st3" points="28.4,22.3 29.9,21.9 29.5,23.4 				"/>
			</g>
		</g>
	</g>
</g>
<g id="Router_3_">
	<path id="Base_3_" class="st1" d="M13.4,31.1v3c0,0,0.8,1.7,5.4,1.7s4.8-1.6,4.8-1.6v-2.8L13.4,31.1z"/>
	<ellipse id="Top_3_" class="st1" cx="18.5" cy="30.9" rx="5.1" ry="2.2"/>
	<g>
		<g>
			<line class="st2" x1="20" y1="31.3" x2="21.9" y2="31.7"/>
			<g>
				<polygon class="st3" points="20.1,32 18.9,31.1 20.3,30.7 				"/>
			</g>
		</g>
	</g>
	<g>
		<g>
			<line class="st2" x1="17.1" y1="30.7" x2="15.1" y2="30.1"/>
			<g>
				<polygon class="st3" points="17,29.8 18.1,30.8 16.7,31.3 				"/>
			</g>
		</g>
	</g>
	<g>
		<g>
			<line class="st2" x1="17.9" y1="31.7" x2="18.5" y2="31.1"/>
			<g>
				<polygon class="st3" points="18.6,32.1 17.1,32.5 17.5,31.1 				"/>
			</g>
		</g>
	</g>
	<g>
		<g>
			<line class="st2" x1="19.2" y1="30.1" x2="18.6" y2="30.8"/>
			<g>
				<polygon class="st3" points="18.5,29.8 19.9,29.4 19.6,30.8 				"/>
			</g>
		</g>
	</g>
</g>
</svg>
