<?xml version="1.0" encoding="utf-8"?>
<!-- Generator: Adobe Illustrator 21.1.0, SVG Export Plug-In . SVG Version: 6.00 Build 0)  -->
<svg version="1.1" id="Layer_1" xmlns="http://www.w3.org/2000/svg" xmlns:xlink="http://www.w3.org/1999/xlink" x="0px" y="0px"
	 viewBox="0 0 64 64" style="enable-background:new 0 0 64 64;" xml:space="preserve">
<style type="text/css">
	.st0{fill:#39393B;stroke:#39393B;stroke-miterlimit:10;}
</style>
<path class="st0" d="M59.2,18.9v29c0,1.3-1,2.3-2.3,2.3H42.8c-1.3,0-2.3-1-2.3-2.3V24.1c0-0.7-0.4-1.4-1-1.9l-6.9-5
	c-0.4-0.3-0.9-0.4-1.3-0.4h-8.4c-1.3,0-2.3-1-2.3-2.3V6.8c0-1.3,1-2.3,2.3-2.3h22.5c0.6,0,1.2,0.3,1.7,0.7l11.6,12.1
	C59,17.8,59.2,18.3,59.2,18.9z M46.3,8.7v9.4h10.2L46.3,8.7z M56.1,21.3H45.6c0,0-2.4-1-2-2.8V8.4H23.8v8.4H32l9.1,6.7v23.6h15V21.3
	z M41.1,26.9c0,0.1,0,0.3,0.1,0.5c0,0.1,0.1,0.2,0.2,0.2h7.7c0,0,0.2-0.1,0.2-0.2c0,0,0.1-0.3,0.1-0.5v-1.6c0-0.1,0-0.3-0.1-0.5
	c0-0.1-0.1-0.2-0.2-0.2h-7.7c0,0-0.1,0-0.2,0.2c0,0-0.1,0.3-0.1,0.5V26.9z M41.4,31c0,0-0.1,0-0.2,0.2c0,0-0.1,0.3-0.1,0.5v1.6
	c0,0.1,0,0.3,0.1,0.5c0,0.1,0.1,0.2,0.2,0.2h7.8c0,0,0.2-0.1,0.2-0.2c0,0,0.1-0.3,0.1-0.5v-1.6c0-0.1,0-0.4-0.1-0.5
	c0-0.1-0.1-0.2-0.2-0.2H41.4z M41.4,37.4c0,0-0.1,0-0.2,0.2c0,0-0.1,0.3-0.1,0.5v1.6c0,0.1,0,0.3,0.1,0.5c0,0.1,0.1,0.2,0.2,0.2h7.8
	c0,0,0.2-0.1,0.2-0.2c0,0,0.1-0.3,0.1-0.5v-1.6c0-0.1,0-0.4-0.1-0.5c0-0.1-0.1-0.2-0.2-0.2H41.4z"/>
<path class="st0" d="M41.9,24.3c0.5,0.5,0.8,1.1,1.2,1.9c0.4,0.7,0.5,1.6,0.5,2.2v29c0,0.7-0.2,1.3-0.7,1.6
	c-0.5,0.5-1.1,0.7-1.6,0.7H7.4c-0.7,0-1.3-0.2-1.6-0.7C5.3,58.6,5,58,5,57.4V17.2c0-0.7,0.2-1.3,0.7-1.6c0.5-0.4,0.9-0.8,1.6-0.8H30
	c0.7,0,1.4,0.2,2.2,0.5c0.7,0.4,1.4,0.7,1.9,1.2L41.9,24.3z M30.7,18.2v9.4h9.4c-0.2-0.5-0.4-0.8-0.5-1.1l-7.9-7.9
	C31.6,18.6,31.2,18.3,30.7,18.2z M40.5,56.6V30.8H30c-0.7,0-1.3-0.2-1.6-0.7c-0.5-0.5-0.7-1.1-0.7-1.6V17.9H8.2v38.7H40.5L40.5,56.6
	z M14.7,34.8c0-0.2,0.1-0.5,0.2-0.5c0.2-0.2,0.4-0.2,0.5-0.2H33c0.2,0,0.5,0.1,0.5,0.2c0.2,0.2,0.2,0.4,0.2,0.5v1.6
	c0,0.2-0.1,0.5-0.2,0.5c-0.1,0.1-0.4,0.2-0.5,0.2H15.4c-0.2,0-0.5-0.1-0.5-0.2c-0.2-0.2-0.2-0.4-0.2-0.5
	C14.7,36.4,14.7,34.8,14.7,34.8z M33.2,40.5c0.2,0,0.5,0.1,0.5,0.2c0.1,0.1,0.2,0.4,0.2,0.5v1.6c0,0.2-0.1,0.5-0.2,0.5
	c-0.1,0.1-0.4,0.2-0.5,0.2H15.4c-0.2,0-0.5-0.1-0.5-0.2c-0.2-0.2-0.2-0.4-0.2-0.5v-1.6c0-0.2,0.1-0.5,0.2-0.5
	c0.2-0.2,0.4-0.2,0.5-0.2H33.2z M33.2,46.9c0.2,0,0.5,0.1,0.5,0.2c0.1,0.1,0.2,0.4,0.2,0.5v1.6c0,0.2-0.1,0.5-0.2,0.5
	c-0.1,0.1-0.4,0.2-0.5,0.2H15.4c-0.2,0-0.5-0.1-0.5-0.2c-0.2-0.2-0.2-0.4-0.2-0.5v-1.6c0-0.2,0.1-0.5,0.2-0.5
	c0.2-0.2,0.4-0.2,0.5-0.2H33.2z"/>
</svg>
