<?xml version="1.0" encoding="utf-8"?>
<!-- Generator: Adobe Illustrator 21.1.0, SVG Export Plug-In . SVG Version: 6.00 Build 0)  -->
<svg version="1.1" id="Layer_1" xmlns="http://www.w3.org/2000/svg" xmlns:xlink="http://www.w3.org/1999/xlink" x="0px" y="0px"
	 viewBox="0 0 48 48" style="enable-background:new 0 0 48 48;" xml:space="preserve">
<style type="text/css">
	.st0{fill:#39393B;}
</style>
<path class="st0" d="M44.7,34.1L37,40.6l-1,0.2v-8.1c0-0.2,0.1-0.4,0.3-0.5l8.4-7.1C44.9,25,45,25,45,25.2v8.4
	C45,33.8,44.9,34,44.7,34.1z"/>
<polygon class="st0" points="45,25 9.2,25 1.5,32.3 37.3,32.3 "/>
<path class="st0" d="M35.2,41.1H3.7c-1.2,0-2.2-0.4-2.2-0.8v-7.7c0-0.5,1-0.8,2.2-0.8h31.5c1.2,0,2.2,0.4,2.2,0.8v7.7
	C37.3,40.7,36.4,41.1,35.2,41.1z M3.7,32.2c-0.4,0-0.7,0.1-0.7,0.3v7.7c0,0.1,0.3,0.3,0.7,0.3h31.5c0.4,0,0.7-0.1,0.7-0.3v-7.7
	c0-0.1-0.3-0.3-0.7-0.3H3.7z"/>
<path class="st0" d="M13.7,34.1H5.1v4.7h8.6C13.7,38.8,13.7,34.1,13.7,34.1z M23.8,34.1h-8.6v4.7h8.6V34.1L23.8,34.1z M33.8,34.1
	h-8.6v4.7h8.6V34.1z"/>
<path class="st0" d="M46.5,22.5H1.8c-0.5,0-1-0.5-1-1V7.3c0-0.6,0.5-1,1-1h44.7c0.5,0,1,0.4,1,1v14.2C47.5,22,47,22.5,46.5,22.5z
	 M36.7,8.3H3.1v7.3h33.6V8.3z M46.3,10V9.3c0-0.6-0.5-1-1-1h-6.6c-0.5,0-1,0.4-1,1V10c0,0.6,0.5,1,1,1h6.6
	C45.8,11,46.3,10.6,46.3,10z M46.3,14.2v-0.7c0-0.5-0.5-1-1-1h-6.6c-0.5,0-1,0.5-1,1v0.7c0,0.6,0.5,1,1,1h6.6
	C45.8,15.2,46.3,14.7,46.3,14.2z M3,19c0,1,0.9,1.9,1.9,1.9S6.8,20,6.8,19s-0.9-1.9-1.9-1.9S3,18,3,19z M8.2,19c0,1,0.9,1.9,1.9,1.9
	S12,20,12,19s-0.9-1.9-1.9-1.9S8.2,18,8.2,19z M13.4,19c0,1,0.9,1.9,1.9,1.9s1.9-0.9,1.9-1.9s-0.9-1.9-1.9-1.9S13.4,18,13.4,19z"/>
</svg>
