<?xml version="1.0" encoding="utf-8"?>
<!-- Generator: Adobe Illustrator 21.1.0, SVG Export Plug-In . SVG Version: 6.00 Build 0)  -->
<svg version="1.1" id="Layer_1" xmlns="http://www.w3.org/2000/svg" xmlns:xlink="http://www.w3.org/1999/xlink" x="0px" y="0px"
	 viewBox="0 0 48 48" style="enable-background:new 0 0 48 48;" xml:space="preserve">
<style type="text/css">
	.st0{fill:#39393B;}
</style>
<path class="st0" d="M46,8H18.4c-0.5,0-1.3,0.3-1.7,0.7L0,24c0,0,0,0,0,0l16.6,15.3c0.4,0.4,1.2,0.7,1.7,0.7H46c1.1,0,2-0.9,2-2V10
	C48,8.9,47.1,8,46,8z M40.4,32.4C40,32.8,39.5,33,39,33c-0.5,0-1-0.2-1.4-0.6L32,26.8l-5.6,5.6C26,32.8,25.5,33,25,33
	s-1-0.2-1.4-0.6c-0.8-0.8-0.8-2,0-2.8l5.6-5.6l-5.6-5.6c-0.8-0.8-0.8-2,0-2.8s2-0.8,2.8,0l5.6,5.6l5.6-5.6c0.8-0.8,2-0.8,2.8,0
	c0.8,0.8,0.8,2,0,2.8L34.8,24l5.6,5.6C41.2,30.4,41.2,31.6,40.4,32.4z"/>
</svg>
