<?xml version="1.0" encoding="utf-8"?>
<!-- Generator: Adobe Illustrator 21.1.0, SVG Export Plug-In . SVG Version: 6.00 Build 0)  -->
<svg version="1.1" id="Layer_1" xmlns="http://www.w3.org/2000/svg" xmlns:xlink="http://www.w3.org/1999/xlink" x="0px" y="0px"
	 viewBox="0 0 48 48" style="enable-background:new 0 0 48 48;" xml:space="preserve">
<style type="text/css">
	.st0{fill:#39393B;}
	.st1{fill:none;stroke:#39393B;stroke-width:2.5;stroke-miterlimit:10;}
</style>
<g>
	<path class="st0" d="M46,26.2c0.7-0.7,1-1.8,0.7-2.7c-0.1-0.4-0.3-0.7-0.6-1c-1-1-2.7-1-3.8,0L23.9,40.8l-3,6.7l6.8-3L46,26.2z"/>
</g>
<path class="st1" d="M30,19.2v6.7H8.7v-4l4-4l2.7,2.7l8-8L30,19.2z M10.5,14c-1,0-1.9-0.4-2.6-1.1c-0.7-0.7-1.1-1.6-1.1-2.6
	s0.4-1.9,1.1-2.6s1.6-1.1,2.6-1.1s1.9,0.4,2.6,1.1c0.7,0.7,1.1,1.6,1.1,2.6s-0.4,1.9-1.1,2.6C12.5,13.7,11.5,14,10.5,14z M32.9,29
	H3.3V3.3h29.6V29z"/>
</svg>
