<?xml version="1.0" encoding="utf-8"?>
<!-- Generator: Adobe Illustrator 21.1.0, SVG Export Plug-In . SVG Version: 6.00 Build 0)  -->
<svg version="1.1" id="Layer_1" xmlns="http://www.w3.org/2000/svg" xmlns:xlink="http://www.w3.org/1999/xlink" x="0px" y="0px"
	 viewBox="0 0 48 48" style="enable-background:new 0 0 48 48;" xml:space="preserve">
<style type="text/css">
	.st0{fill:#39393B;}
</style>
<path class="st0" d="M16.3,17.2C7.8,17.2,1,24,1,32.4s6.8,15.3,15.3,15.3s15.3-6.8,15.3-15.3C31.5,24,24.7,17.2,16.3,17.2z
	 M26.3,40.2c-0.7-0.5-1.5-1-2.2-1.4c0.6-1.6,0.9-3.3,1-5.1h3.8C28.7,36.1,27.7,38.3,26.3,40.2z M3.6,33.7h3.8c0.1,1.8,0.5,3.5,1,5.1
	c-0.8,0.4-1.5,0.9-2.2,1.4C4.8,38.3,3.8,36.1,3.6,33.7z M6.2,24.7c0.7,0.5,1.5,1,2.2,1.4c-0.6,1.6-0.9,3.3-1,5.1H3.6
	C3.8,28.7,4.8,26.5,6.2,24.7z M15,25.4c-1.1-0.1-2.2-0.3-3.2-0.6c0.8-1.5,1.9-2.8,3.2-3.9V25.4z M15,27.9v3.2h-5
	c0.1-1.4,0.4-2.8,0.8-4.1C12.1,27.5,13.5,27.8,15,27.9z M15,33.7v3.2c-1.5,0.1-2.9,0.4-4.2,0.8c-0.4-1.3-0.7-2.7-0.8-4.1
	C9.9,33.7,15,33.7,15,33.7z M15,39.5V44c-1.3-1-2.3-2.4-3.2-3.9C12.8,39.8,13.9,39.6,15,39.5z M17.5,39.5c1.1,0.1,2.2,0.3,3.2,0.6
	c-0.8,1.5-1.9,2.8-3.2,3.9V39.5z M17.5,36.9v-3.2h5c-0.1,1.4-0.4,2.8-0.8,4.1C20.4,37.3,19,37,17.5,36.9z M17.5,31.2V28
	c1.5-0.1,2.9-0.4,4.2-0.8c0.4,1.3,0.7,2.7,0.8,4.1h-5V31.2z M17.5,25.4v-4.5c1.3,1,2.3,2.4,3.2,3.9C19.7,25.1,18.6,25.3,17.5,25.4z
	 M20.9,20.6c1.3,0.5,2.6,1.3,3.6,2.2c-0.5,0.3-1,0.7-1.5,0.9C22.4,22.6,21.7,21.6,20.9,20.6z M9.5,23.7c-0.5-0.3-1-0.6-1.5-0.9
	c1.1-0.9,2.3-1.7,3.6-2.2C10.8,21.6,10.1,22.6,9.5,23.7z M9.5,41.1c0.6,1.1,1.3,2.2,2.1,3.1C10.3,43.7,9,43,8,42
	C8.4,41.7,8.9,41.4,9.5,41.1z M23,41.1c0.5,0.3,1,0.6,1.5,0.9c-1.1,0.9-2.3,1.7-3.6,2.2C21.7,43.3,22.4,42.2,23,41.1z M25.1,31.2
	c-0.1-1.8-0.5-3.5-1-5.1c0.8-0.4,1.5-0.9,2.2-1.4c1.4,1.8,2.4,4.1,2.6,6.5H25.1z"/>
<path class="st0" d="M27.8,7h0.6c0.7,1.2,2,2,3.4,2c1.5,0,2.8-0.8,3.4-2h10.6c1.1,0,2-0.9,2-2s-0.9-2-2-2H35.2c-0.7-1.2-2-2-3.4-2
	S29,1.8,28.3,3h-0.6c-1.1,0-2,0.9-2,2S26.6,7,27.8,7z"/>
<path class="st0" d="M45.8,17h-0.6c-0.7-1.2-2-2-3.4-2s-2.8,0.8-3.4,2H27.8c-1.1,0-2,0.9-2,2s0.9,2,2,2h10.6c0.7,1.2,2,2,3.4,2
	s2.8-0.8,3.4-2h0.6c1.1,0,2-0.9,2-2S46.8,17,45.8,17z"/>
</svg>
