<?xml version="1.0" encoding="utf-8"?>
<!-- Generator: Adobe Illustrator 21.1.0, SVG Export Plug-In . SVG Version: 6.00 Build 0)  -->
<svg version="1.1" id="Layer_1" xmlns="http://www.w3.org/2000/svg" xmlns:xlink="http://www.w3.org/1999/xlink" x="0px" y="0px"
	 viewBox="0 0 48 48" style="enable-background:new 0 0 48 48;" xml:space="preserve">
<style type="text/css">
	.st0{fill:#39393B;}
	.st1{enable-background:new    ;}
	.st2{fill:#39393B;stroke:#FFFFFF;stroke-miterlimit:10;}
</style>
<g>
	<path class="st0" d="M31.6,2H3.4C2.6,2,2,2.7,2,3.5v8.4h31V3.5C33,2.7,32.4,2,31.6,2z M6.5,8.9c-0.9,0-1.8-0.9-1.8-2
		c0-1,0.8-1.9,1.8-1.9s1.8,0.9,1.8,1.9C8.4,8,7.6,8.9,6.5,8.9z"/>
	<path class="st0" d="M2,34c0,0.8,0.6,1.5,1.4,1.5h28.2c0.7,0,1.4-0.7,1.4-1.5v-8.4H2V34z"/>
	<rect x="2" y="14.9" class="st0" width="31" height="7.6"/>
</g>
<g class="st1">
	<path class="st2" d="M27.8,34.8h6.7v-6.9h5.7v6.9h6.9v5.7h-6.9v6.7h-5.7v-6.7h-6.7V34.8z"/>
</g>
</svg>
