<?xml version="1.0" encoding="utf-8"?>
<!-- Generator: Adobe Illustrator 21.1.0, SVG Export Plug-In . SVG Version: 6.00 Build 0)  -->
<svg version="1.1" id="Layer_1" xmlns="http://www.w3.org/2000/svg" xmlns:xlink="http://www.w3.org/1999/xlink" x="0px" y="0px"
	 viewBox="0 0 48 48" style="enable-background:new 0 0 48 48;" xml:space="preserve">
<style type="text/css">
	.st0{fill:#39393B;}
	.st1{fill:#FFFFFF;}
	.st2{enable-background:new    ;}
	.st3{fill:#39393B;stroke:#FFFFFF;stroke-miterlimit:10;}
</style>
<rect x="2.8" y="6.8" class="st0" width="25.6" height="40.4"/>
<rect x="5.8" y="1.4" class="st0" width="19.5" height="9.2"/>
<rect x="6" y="10.6" class="st1" width="4.7" height="4.7"/>
<rect x="13.1" y="10.6" class="st1" width="4.7" height="4.7"/>
<rect x="20.3" y="10.6" class="st1" width="4.7" height="4.7"/>
<rect x="6" y="19.5" class="st1" width="4.7" height="4.7"/>
<rect x="13.1" y="19.5" class="st1" width="4.7" height="4.7"/>
<rect x="20.3" y="19.5" class="st1" width="4.7" height="4.7"/>
<rect x="6" y="28.5" class="st1" width="4.7" height="4.7"/>
<rect x="13.1" y="28.5" class="st1" width="4.7" height="4.7"/>
<rect x="20.3" y="28.5" class="st1" width="4.7" height="4.7"/>
<rect x="6" y="37.5" class="st1" width="4.7" height="4.7"/>
<rect x="13.1" y="37.5" class="st1" width="4.7" height="4.7"/>
<rect x="20.3" y="37.5" class="st1" width="4.7" height="4.7"/>
<g class="st2">
	<path class="st3" d="M27.8,34.8h6.7v-6.9h5.7v6.9h6.9v5.7h-6.9v6.7h-5.7v-6.7h-6.7V34.8z"/>
</g>
</svg>
