<?xml version="1.0" encoding="utf-8"?>
<!-- Generator: Adobe Illustrator 21.1.0, SVG Export Plug-In . SVG Version: 6.00 Build 0)  -->
<svg version="1.1" id="Layer_1" xmlns="http://www.w3.org/2000/svg" xmlns:xlink="http://www.w3.org/1999/xlink" x="0px" y="0px"
	 viewBox="0 0 48 48" style="enable-background:new 0 0 48 48;" xml:space="preserve">
<style type="text/css">
	.st0{fill:#39393B;}
	.st1{fill:#FFFFFF;stroke:#39393B;stroke-width:2;stroke-miterlimit:10;}
	.st2{fill:#FFFFFF;}
	.st3{enable-background:new    ;}
	.st4{fill:#39393B;stroke:#FFFFFF;stroke-miterlimit:10;}
</style>
<g id="Building3">
	<ellipse class="st0" cx="33.9" cy="10.8" rx="7.6" ry="3.5"/>
	<rect x="24" y="11.1" class="st1" width="19.7" height="35.1"/>
	<path class="st0" d="M32.3,16.9h-5c-0.5,0-1-0.5-1-1v-1.5c0-0.6,0.5-1,1-1h5c0.5,0,1,0.4,1,1v1.5C33.3,16.4,32.8,16.9,32.3,16.9z"
		/>
	<path class="st0" d="M40.3,16.9h-5c-0.5,0-1-0.5-1-1v-1.5c0-0.6,0.5-1,1-1h5c0.5,0,1,0.4,1,1v1.5C41.3,16.4,40.8,16.9,40.3,16.9z"
		/>
	<path class="st0" d="M32.3,22.1h-5c-0.5,0-1-0.4-1-1v-1.5c0-0.5,0.5-1,1-1h5c0.5,0,1,0.5,1,1v1.5C33.3,21.6,32.8,22.1,32.3,22.1z"
		/>
	<path class="st0" d="M40.3,22.1h-5c-0.5,0-1-0.4-1-1v-1.5c0-0.5,0.5-1,1-1h5c0.5,0,1,0.5,1,1v1.5C41.3,21.6,40.8,22.1,40.3,22.1z"
		/>
	<path class="st0" d="M32.3,27.3h-5c-0.5,0-1-0.4-1-1v-1.5c0-0.5,0.5-1,1-1h5c0.5,0,1,0.5,1,1v1.5C33.3,26.8,32.8,27.3,32.3,27.3z"
		/>
	<path class="st0" d="M40.3,27.3h-5c-0.5,0-1-0.4-1-1v-1.5c0-0.5,0.5-1,1-1h5c0.5,0,1,0.5,1,1v1.5C41.3,26.8,40.8,27.3,40.3,27.3z"
		/>
</g>
<g id="Building1">
	<rect x="1.1" y="7.3" class="st0" width="16.7" height="39.9"/>
	<rect x="3" y="2" class="st0" width="12.7" height="9.1"/>
	<rect x="4.1" y="11.1" class="st2" width="4.4" height="4.6"/>
	<rect x="10.7" y="11.1" class="st2" width="4.4" height="4.6"/>
	<rect x="4.1" y="19.9" class="st2" width="4.4" height="4.6"/>
	<rect x="10.7" y="19.9" class="st2" width="4.4" height="4.6"/>
	<rect x="4.1" y="28.7" class="st2" width="4.4" height="4.6"/>
	<rect x="10.7" y="28.7" class="st2" width="4.4" height="4.6"/>
	<rect x="4.1" y="37.6" class="st2" width="4.4" height="4.6"/>
	<rect x="10.7" y="37.6" class="st2" width="4.4" height="4.6"/>
</g>
<g id="Building2">
	<rect x="17.3" y="22.5" class="st0" width="13.8" height="24.7"/>
	<rect x="19.3" y="25.4" class="st2" width="2.1" height="18.1"/>
	<rect x="22.8" y="25.4" class="st2" width="2.1" height="18.1"/>
	<rect x="26.3" y="25.4" class="st2" width="2.1" height="18.1"/>
</g>
<g class="st3">
	<path class="st4" d="M27.8,34.8h6.7v-6.9h5.7v6.9h6.9v5.7h-6.9v6.7h-5.7v-6.7h-6.7V34.8z"/>
</g>
</svg>
