<?xml version="1.0" encoding="utf-8"?>
<!-- Generator: Adobe Illustrator 21.1.0, SVG Export Plug-In . SVG Version: 6.00 Build 0)  -->
<svg version="1.1" id="Layer_1" xmlns="http://www.w3.org/2000/svg" xmlns:xlink="http://www.w3.org/1999/xlink" x="0px" y="0px"
	 viewBox="0 0 64 64" style="enable-background:new 0 0 64 64;" xml:space="preserve">
<style type="text/css">
	.st0{fill:#39393B;stroke:#39393B;stroke-miterlimit:10;}
	.st1{fill:none;stroke:#39393B;stroke-width:3;stroke-miterlimit:10;}
	.st2{fill:#39393B;}
</style>
<path class="st0" d="M41.9,24.3c0.5,0.5,0.8,1.1,1.2,1.9c0.4,0.7,0.5,1.6,0.5,2.2v29c0,0.7-0.2,1.3-0.7,1.6
	c-0.5,0.5-1.1,0.7-1.6,0.7H7.4c-0.7,0-1.3-0.2-1.6-0.7C5.3,58.6,5,58,5,57.4V17.2c0-0.7,0.2-1.3,0.7-1.6c0.5-0.4,0.9-0.8,1.6-0.8H30
	c0.7,0,1.4,0.2,2.2,0.5c0.7,0.4,1.4,0.7,1.9,1.2L41.9,24.3z M30.7,18.2v9.4h9.4c-0.2-0.5-0.4-0.8-0.5-1.1l-7.9-7.9
	C31.6,18.6,31.2,18.3,30.7,18.2z M40.5,56.6V30.8H30c-0.7,0-1.3-0.2-1.6-0.7c-0.5-0.5-0.7-1.1-0.7-1.6V17.9H8.2v38.7H40.5L40.5,56.6
	z M14.7,34.8c0-0.2,0.1-0.5,0.2-0.5c0.2-0.2,0.4-0.2,0.5-0.2H33c0.2,0,0.5,0.1,0.5,0.2c0.2,0.2,0.2,0.4,0.2,0.5v1.6
	c0,0.2-0.1,0.5-0.2,0.5c-0.1,0.1-0.4,0.2-0.5,0.2H15.4c-0.2,0-0.5-0.1-0.5-0.2c-0.2-0.2-0.2-0.4-0.2-0.5
	C14.7,36.4,14.7,34.8,14.7,34.8z M33.2,40.5c0.2,0,0.5,0.1,0.5,0.2c0.1,0.1,0.2,0.4,0.2,0.5v1.6c0,0.2-0.1,0.5-0.2,0.5
	c-0.1,0.1-0.4,0.2-0.5,0.2H15.4c-0.2,0-0.5-0.1-0.5-0.2c-0.2-0.2-0.2-0.4-0.2-0.5v-1.6c0-0.2,0.1-0.5,0.2-0.5
	c0.2-0.2,0.4-0.2,0.5-0.2H33.2z M33.2,46.9c0.2,0,0.5,0.1,0.5,0.2c0.1,0.1,0.2,0.4,0.2,0.5v1.6c0,0.2-0.1,0.5-0.2,0.5
	c-0.1,0.1-0.4,0.2-0.5,0.2H15.4c-0.2,0-0.5-0.1-0.5-0.2c-0.2-0.2-0.2-0.4-0.2-0.5v-1.6c0-0.2,0.1-0.5,0.2-0.5
	c0.2-0.2,0.4-0.2,0.5-0.2H33.2z"/>
<g>
	<path class="st1" d="M57.2,55.1V9.6c0-2-1.7-3.7-3.8-3.7H20.8c-2.1,0-3.8,1.7-3.8,3.7V13c0,2,1.7,3.7,3.8,3.7h8.5
		c1,0,2,0.4,2.7,1.1l8,7.9c0.7,0.7,1.1,1.6,1.1,2.6v26.8c0,2,1.7,3.7,3.8,3.7h8.7C55.5,58.8,57.2,57.2,57.2,55.1z"/>
	<rect x="25.3" y="3.6" class="st2" width="24.2" height="7.1"/>
	<ellipse class="st2" cx="37.5" cy="4.5" rx="7.2" ry="4.2"/>
</g>
</svg>
