<?xml version="1.0" encoding="utf-8"?>
<!-- Generator: Adobe Illustrator 21.1.0, SVG Export Plug-In . SVG Version: 6.00 Build 0)  -->
<svg version="1.1" id="Layer_1" xmlns="http://www.w3.org/2000/svg" xmlns:xlink="http://www.w3.org/1999/xlink" x="0px" y="0px"
	 viewBox="0 0 48 48" style="enable-background:new 0 0 48 48;" xml:space="preserve">
<style type="text/css">
	.st0{fill:none;stroke:#39393B;stroke-width:4;stroke-miterlimit:10;stroke-dasharray:16.35,5.45;}
	.st1{fill:none;stroke:#39393B;stroke-width:4;stroke-miterlimit:10;}
	.st2{fill:#39393B;stroke:#39393B;stroke-miterlimit:10;}
</style>
<g>
	<g>
		<line class="st0" x1="32.3" y1="31.8" x2="13.2" y2="31.8"/>
		<polyline class="st1" points="10.5,31.8 3,31.8 3,24.3 		"/>
		<polyline class="st1" points="3,12.3 3,4.8 10.5,4.8 		"/>
		<line class="st0" x1="15.9" y1="4.8" x2="35" y2="4.8"/>
		<polyline class="st1" points="37.8,4.8 45.3,4.8 45.3,12.3 		"/>
	</g>
</g>
<path class="st2" d="M39.9,30.6l-4.4-6l3-2.2c0.4-0.3,0.3-0.6-0.1-0.8l-7.8-2.7l0.2,8.2c0,0.5,0.3,0.6,0.7,0.3l3-2.2l4.4,6
	c0.2,0.3,0.6,0.3,0.9,0.1S40.1,30.8,39.9,30.6z"/>
<path class="st2" d="M37.8,29.7l4.4,6l-3,2.2c-0.4,0.3-0.3,0.6,0.1,0.8l7.8,2.7L47,33.1c0-0.5-0.3-0.6-0.7-0.3l-3,2.2l-4.4-6
	c-0.2-0.3-0.6-0.3-0.9-0.1C37.7,29,37.6,29.5,37.8,29.7z"/>
</svg>
