<?xml version="1.0" encoding="utf-8"?>
<!-- Generator: Adobe Illustrator 21.1.0, SVG Export Plug-In . SVG Version: 6.00 Build 0)  -->
<svg version="1.1" id="Layer_1" xmlns="http://www.w3.org/2000/svg" xmlns:xlink="http://www.w3.org/1999/xlink" x="0px" y="0px"
	 viewBox="0 0 48 48" style="enable-background:new 0 0 48 48;" xml:space="preserve">
<style type="text/css">
	.st0{fill:#39393B;}
</style>
<path class="st0" d="M45.3,8.5H2.7c-1.1,0-1.9,0.9-1.9,1.9v27.1c0,1.1,0.9,1.9,1.9,1.9h42.6c1.1,0,1.9-0.9,1.9-1.9V10.4
	C47.3,9.4,46.4,8.5,45.3,8.5z M43.4,35.6H4.6V15.3h38.8C43.4,15.3,43.4,35.6,43.4,35.6z M43.1,13.9h-4.2V9.7h4.2V13.9z"/>
<g>
	<path class="st0" d="M39.8,13l0.9-1.2l-0.8-1.2h0.8l0.4,0.7l0.5-0.7h0.8l-0.8,1.1l0.9,1.3h-0.8L41,12.3L40.5,13H39.8z"/>
</g>
</svg>
