<?xml version="1.0" encoding="utf-8"?>
<!-- Generator: Adobe Illustrator 21.1.0, SVG Export Plug-In . SVG Version: 6.00 Build 0)  -->
<svg version="1.1" id="Layer_1" xmlns="http://www.w3.org/2000/svg" xmlns:xlink="http://www.w3.org/1999/xlink" x="0px" y="0px"
	 viewBox="0 0 48 48" style="enable-background:new 0 0 48 48;" xml:space="preserve">
<style type="text/css">
	.st0{fill:#39393B;}
	.st1{fill:#39393B;stroke:#39393B;stroke-width:0.75;stroke-miterlimit:10;}
</style>
<path class="st0" d="M45.3,2.8H2.7C1.6,2.8,0.8,4,0.8,5.3v36.6c0,1.5,0.9,2.6,1.9,2.6h42.6c1.1,0,1.9-1.2,1.9-2.6V5.3
	C47.3,4,46.4,2.8,45.3,2.8z M43.4,39.4H4.6V11.9h38.8C43.4,11.9,43.4,39.4,43.4,39.4z M43.1,10h-4.2V4.4h4.2V10z"/>
<g>
	<path class="st0" d="M39.8,8.8l0.9-1.6l-0.8-1.6h0.8l0.4,0.9l0.5-0.9h0.8l-0.8,1.5l0.9,1.8h-0.8L41,7.9l-0.5,0.9H39.8z"/>
</g>
<g>
	<path class="st1" d="M35.7,23.6H19.4c-0.4,0-0.8,0.6-0.8,1.4s0.4,1.4,0.8,1.4h16.3c0.4,0,0.8-0.6,0.8-1.4S36.1,23.6,35.7,23.6z"/>
	<path class="st1" d="M35.7,30.5H19.4c-0.4,0-0.8,0.6-0.8,1.4c0,0.8,0.4,1.4,0.8,1.4h16.3c0.4,0,0.8-0.6,0.8-1.4
		C36.5,31.1,36.1,30.5,35.7,30.5z"/>
	<path class="st1" d="M19.4,19.4h16.3c0.4,0,0.8-0.6,0.8-1.4c0-0.8-0.4-1.4-0.8-1.4H19.4c-0.4,0-0.8,0.6-0.8,1.4
		C18.6,18.8,19,19.4,19.4,19.4z"/>
</g>
<ellipse class="st1" cx="14.7" cy="18.1" rx="1.2" ry="2.1"/>
<ellipse class="st1" cx="14.7" cy="24.4" rx="1.2" ry="2.1"/>
<ellipse class="st1" cx="14.7" cy="31.9" rx="1.2" ry="2.1"/>
</svg>
