<?xml version="1.0" encoding="utf-8"?>
<!-- Generator: Adobe Illustrator 21.1.0, SVG Export Plug-In . SVG Version: 6.00 Build 0)  -->
<svg version="1.1" id="Layer_1" xmlns="http://www.w3.org/2000/svg" xmlns:xlink="http://www.w3.org/1999/xlink" x="0px" y="0px"
	 viewBox="0 0 48 48" style="enable-background:new 0 0 48 48;" xml:space="preserve">
<style type="text/css">
	.st0{fill:#39393B;}
</style>
<g>
	<path class="st0" d="M45.4,42.6L30.6,27.8c2.1-2.7,3.4-6.1,3.4-9.8c0-8.8-7.2-16-16-16S2,9.2,2,18s7.2,16,16,16
		c3.7,0,7.1-1.3,9.8-3.4l14.8,14.8C43,45.8,43.5,46,44,46s1-0.2,1.4-0.6C46.2,44.6,46.2,43.4,45.4,42.6z M18,30c-6.6,0-12-5.4-12-12
		S11.4,6,18,6s12,5.4,12,12S24.6,30,18,30z"/>
</g>
<g>
	<path class="st0" d="M12.6,24.8V11.4h5.7c1.4,0,2.5,0.1,3.1,0.4c0.6,0.2,1.2,0.7,1.6,1.3s0.6,1.3,0.6,2.1c0,1-0.3,1.8-0.9,2.5
		s-1.5,1.1-2.6,1.2c0.6,0.3,1.1,0.7,1.4,1.1c0.4,0.4,0.9,1.1,1.5,2.2l1.6,2.6h-3.2l-2-2.9c-0.7-1-1.2-1.7-1.4-2
		c-0.3-0.3-0.5-0.5-0.8-0.6s-0.7-0.2-1.4-0.2h-0.5v5.6L12.6,24.8L12.6,24.8z M15.3,17h2c1.3,0,2.1-0.1,2.4-0.2s0.6-0.3,0.8-0.6
		c0.2-0.3,0.3-0.6,0.3-1s-0.1-0.8-0.4-1.1c-0.2-0.3-0.6-0.5-1-0.5c-0.2,0-0.9,0-2,0h-2.1C15.3,13.6,15.3,17,15.3,17z"/>
</g>
</svg>
